<svg xmlns="http://www.w3.org/2000/svg" xmlns:xlink="http://www.w3.org/1999/xlink" viewBox="0 0 500 500"><defs><clipPath id="freepik--clip-path--inject-4"><path d="M347.67,388.48l.12-44.21c.48-1.78.87-8.34,1.89-12.91,1.74-7.66-5.1-16.9-5.58-17.2-1.92-1.19-6-1.17-6-1.17s-4-4.57-7.57-6a17.87,17.87,0,0,0-7.66-1,36.61,36.61,0,0,0-9.1-5.51,7.49,7.49,0,0,0-7.66,1.44l-4.47,7a5.21,5.21,0,0,0,.61,6.52c2.14,2.11,4.88,1.12,6.26,1.12,1.91,0,2.63-2.16,2.63-2.16s.47,11.26,0,12.69h0c-.49,1.43-4.07,4.78-4.07,4.78l-12-15.83a114.51,114.51,0,0,1-10.77-17.78,8.5,8.5,0,0,0-1.35-2.09c-2.1-2.38-6.59-3.07-7.76,1.32a8.7,8.7,0,0,0,.19,4.24c5,14.78,11.38,25.95,17.19,37.59,3.45,6.91,2.17,6.83,3.89,9.95-.2.14-.1.4-.32.53-.84,3.36-1.43,6.73-2.28,10.09a46,46,0,0,0-3.83-12.18,27.5,27.5,0,0,0,.53-7.12,9.38,9.38,0,0,0-3-6.31,6.17,6.17,0,0,0-3.49-1.36,3.64,3.64,0,0,0-3.84,3.12,37.51,37.51,0,0,1-1,5.41,54.48,54.48,0,0,1-2.76,6.8c0,4.46,2.76,3.73,4.77,21.67,1.56,14,19.56,23.21,29.36,33.3l10.44,32.86A202.3,202.3,0,0,0,356,417.79Z" style="fill:#fff"></path></clipPath><clipPath id="freepik--clip-path-2--inject-4"><path d="M237.2,336.42c-.43-2-3.24-1.69-3.24-1.69-9.45.56-10.72,15.37-10.72,15.37l-3.39,10.14-1-15.26.1-19.67s2.86-18.82,1.59-21.77a4.31,4.31,0,0,0-3.91-2.86c-5.5-1.38-5.82,6.55-5.82,6.55l-4.64,16.18-1.91,17.45-1.58-.84s-.75-18.52-.43-18.83,2.22-12.79,2.22-12.79,1.05-2.33,2.33-5.29a6.43,6.43,0,0,0,0-5.29c-2.23-4.54-6.87-2.42-7.83,0a70.39,70.39,0,0,1-3.8,7.19l-5.3,14.49c.2,3.28-1.68,19.46-1.68,19.46l-1.91-.87-3.07-9.5,2.34-9.73s5.07-5.6,4.22-8.88-5.18-2.32-5.18-2.32L175.88,318h-2.55l-6,7.61a48.27,48.27,0,0,0-1.38,25.29l1.38,6.43v41.56s-4.12,6.66-4.12,7.29c0,.29-1.7,5.54-4.07,12.09,10.37,6.1,19.3,10.82,25.63,13.31,3,1.18,6,2.3,9,3.37,3.8-10.67,8.24-22.08,10.69-24.75,4.86-5.28,14.38-15.44,14.38-15.44s10.81-17.37,12.08-23.14c1-4.74,3.58-13.35,4.46-16.3a5.77,5.77,0,0,0,.24-2.07c-.07-1.56-.22-4.59-.22-7.26C235.36,342.2,237.62,338.39,237.2,336.42Z" style="fill:#fff"></path></clipPath><clipPath id="freepik--clip-path-3--inject-4"><path d="M450,317.12a71.82,71.82,0,0,1-1,11.86c-2.9,17.31-12,29.93-22.76,29.93a13.68,13.68,0,0,1-2.86-.3c-11.75-2.49-20.86-20.11-20.86-41.49,0-23.08,10.62-31.25,23.72-31.25S450,294,450,317.12Z" style="fill:#fff;stroke:#263238;stroke-miterlimit:10"></path></clipPath></defs><g id="freepik--background-simple--inject-4"><path d="M481.72,245.83a119.56,119.56,0,0,1-3.33,28.48c-.75,3.06-1.65,6.11-2.68,9.11-.3.86-.6,1.72-.92,2.57-.26.7-.53,1.4-.8,2.09l-.23.57c-.29.72-.58,1.44-.89,2.15l-.15.35c-.3.7-.61,1.4-.92,2.09l-.42.91c-.28.62-.57,1.23-.87,1.84s-.63,1.29-.95,1.93c-.12.23-.23.46-.35.68l-.85,1.65-.69,1.27q-1.59,2.94-3.33,5.8c-.47.78-.95,1.56-1.44,2.33-.11.19-.23.38-.35.57q-.84,1.32-1.71,2.64c-.47.71-.94,1.42-1.43,2.13l-1.27,1.85-.28.39c-.44.64-.9,1.28-1.35,1.92-.56.79-1.13,1.56-1.7,2.34-.12.16-.23.32-.35.47-.65.89-1.32,1.77-2,2.64-.4.52-.8,1-1.21,1.56-.72.95-1.46,1.89-2.21,2.83s-1.43,1.79-2.16,2.68l-.24.29c-.72.89-1.44,1.77-2.18,2.65-.21.27-.44.54-.66.8-.67.81-1.35,1.62-2,2.42q-2.94,3.48-5.93,6.9-6.08,7-12.41,13.89c-3.51,3.8-7.07,7.58-10.7,11.29-17.42,17.89-36.28,34.58-56.79,47.88-2.55,1.65-5.12,3.26-7.72,4.79l-2.85,1.67-.49.28c-1,.56-2,1.11-2.95,1.65s-2,1.11-3,1.64l-1.38.72q-3,1.56-6,3c-1.09.52-2.18,1-3.28,1.51s-2,.91-3.05,1.35l-1.25.53c-.93.4-1.87.78-2.81,1.16q-2.72,1.1-5.48,2.09l-2.12.76-1.2.41-2,.65-1.72.55-.06,0q-1.69.53-3.39,1c-1.79.52-3.58,1-5.38,1.46-1.19.3-2.38.58-3.58.85s-2.26.5-3.4.74l-.27.05c-1.18.24-2.37.47-3.56.68l-1.82.31-1.84.29c-.55.09-1.11.17-1.66.24l-2,.28a154.51,154.51,0,0,1-21.37,1.21l-1.28,0a176.84,176.84,0,0,1-19.35-1.45l-1.41-.19-2.43-.34-1.89-.3c-2.67-.42-5.32-.9-8-1.44-.59-.11-1.17-.23-1.75-.36-1.78-.37-3.57-.77-5.34-1.19-1.19-.28-2.37-.57-3.55-.87l-1.77-.46-1.77-.47c-2.35-.63-4.69-1.31-7-2q-4.06-1.23-8.08-2.61l-2.92-1c-3-1.07-6-2.2-9-3.37l-1.63-.66-1.31-.57-.88-.4c-1.94-.88-4-1.91-6.32-3.07l-1.16-.6c-1.39-.73-2.84-1.5-4.33-2.32-3.13-1.72-6.48-3.62-10-5.69-40-23.54-101.26-67.72-115.64-84.47-.73-.85-1.44-1.71-2.15-2.58-.55-.68-1.1-1.37-1.63-2.07s-1-1.26-1.44-1.91-.83-1.13-1.23-1.71-.76-1.07-1.13-1.61l-.08-.12c-.45-.67-.9-1.34-1.34-2s-.84-1.3-1.24-2c-.2-.31-.39-.63-.58-.95q-.67-1.11-1.32-2.22v0c-.46-.82-.92-1.64-1.37-2.47-.78-1.45-1.53-2.91-2.23-4.39l-.54-1.15a91.47,91.47,0,0,1-3.74-9.29c-.39-1.1-.74-2.21-1.08-3.32-.43-1.43-.82-2.87-1.18-4.31-.07-.29-.14-.57-.2-.86-.18-.75-.35-1.51-.5-2.27-.23-1.06-.42-2.12-.6-3.19,0-.26-.09-.52-.12-.78-.09-.55-.17-1.1-.24-1.66s-.17-1.33-.24-2c0-.23-.05-.45-.07-.67-.06-.57-.1-1.14-.15-1.7a.61.61,0,0,0,0-.14c-.05-.68-.09-1.35-.11-2a1.28,1.28,0,0,1,0-.19q0-1.06-.06-2.13v-2c0-1,.05-2.09.11-3.13,0-.68.09-1.36.15-2,.12-1.34.28-2.68.48-4,.1-.68.21-1.36.34-2q.36-2,.87-4.05a69.72,69.72,0,0,1,3.45-10.25,72.21,72.21,0,0,1,3.59-7.34c.1-.2.22-.41.34-.61,5.39-9.49,12.72-17.91,21-25.71.88-.84,1.77-1.66,2.68-2.47s1.91-1.72,2.88-2.58l.18-.16q2.32-2,4.71-4c2.45-2.05,4.94-4.06,7.45-6.06l.25-.2c2.15-1.7,4.32-3.39,6.48-5.07,3.4-2.63,6.81-5.25,10.15-7.86l2.64-2.07c1-.76,1.92-1.52,2.87-2.28a213.69,213.69,0,0,0,23.86-22.64q2.08-2.28,4.14-4.59c.65-.74,1.3-1.47,1.94-2.21,9.13-10.4,17.62-20.92,27.07-30.85q3.38-3.55,6.92-7c2-1.91,4-3.79,6.14-5.63C162,105.11,164.43,103,167,101c3.55-2.76,7.29-5.41,11.29-7.94,1-.63,2-1.24,2.93-1.84,99.71-62,173.1-41.74,222.06,0Q408.85,96,414,101c2.08,2,4.09,4.09,6,6.19.22.22.42.45.63.69q2.06,2.19,4,4.41l1.15,1.32c.57.66,1.14,1.32,1.7,2s1.37,1.63,2.05,2.45l1.27,1.56c2.73,3.36,5.33,6.77,7.81,10.2.5.68,1,1.37,1.48,2.06,3.42,4.8,6.6,9.65,9.55,14.47l1.25,2.06q.63,1,1.23,2.07l1.19,2.05c.4.69.79,1.37,1.17,2.05l1.14,2c.39.68.76,1.36,1.11,2l1.09,2c.36.67.71,1.35,1.06,2l1,2,1,2q2,4,3.73,7.82c.58,1.3,1.16,2.59,1.71,3.86,2.49,5.72,4.62,11.19,6.36,16.28a.19.19,0,0,1,0,.07c.17.49.33,1,.49,1.45s.33,1,.49,1.48.25.75.36,1.13c.18.56.36,1.12.53,1.69s.37,1.22.54,1.83c.33,1.12.65,2.24,1,3.37.26.95.51,1.9.75,2.86,0,.18.1.35.14.53s.07.3.11.45c.14.56.28,1.12.41,1.69.36,1.49.69,3,1,4.49.17.82.34,1.63.49,2.45l.09.46q.23,1.15.42,2.31c.18,1,.35,2.07.5,3.1.13.78.24,1.57.35,2.36,0,.11,0,.23.05.35.07.52.14,1,.2,1.58s.11.88.16,1.31c.18,1.59.34,3.17.47,4.76l.09,1.08.12,1.81c0,.67.08,1.34.11,2,0,.52.05,1,.07,1.55,0,.76.05,1.53.06,2.29S481.72,244.94,481.72,245.83Z" style="fill:#000000"></path><g style="opacity:0.2000000000000001"><path d="M481.72,245.83a119.56,119.56,0,0,1-3.33,28.48c-.75,3.06-1.65,6.11-2.68,9.11-.3.86-.6,1.72-.92,2.57-.26.7-.53,1.4-.8,2.09l-.23.57c-.29.72-.58,1.44-.89,2.15l-.15.35c-.3.7-.61,1.4-.92,2.09l-.42.91c-.28.62-.57,1.23-.87,1.84s-.63,1.29-.95,1.93c-.12.23-.23.46-.35.68l-.85,1.65-.69,1.27q-1.59,2.94-3.33,5.8c-.47.78-.95,1.56-1.44,2.33-.11.19-.23.38-.35.57q-.84,1.32-1.71,2.64c-.47.71-.94,1.42-1.43,2.13l-1.27,1.85-.28.39c-.44.64-.9,1.28-1.35,1.92-.56.79-1.13,1.56-1.7,2.34-.12.16-.23.32-.35.47-.65.89-1.32,1.77-2,2.64-.4.52-.8,1-1.21,1.56-.72.95-1.46,1.89-2.21,2.83s-1.43,1.79-2.16,2.68l-.24.29c-.72.89-1.44,1.77-2.18,2.65-.21.27-.44.54-.66.8-.67.81-1.35,1.62-2,2.42q-2.94,3.48-5.93,6.9-6.08,7-12.41,13.89c-3.51,3.8-7.07,7.58-10.7,11.29-17.42,17.89-36.28,34.58-56.79,47.88-2.55,1.65-5.12,3.26-7.72,4.79l-2.85,1.67-.49.28c-1,.56-2,1.11-2.95,1.65s-2,1.11-3,1.64l-1.38.72q-3,1.56-6,3c-1.09.52-2.18,1-3.28,1.51s-2,.91-3.05,1.35l-1.25.53c-.93.4-1.87.78-2.81,1.16q-2.72,1.1-5.48,2.09l-2.12.76-1.2.41-2,.65-1.72.55-.06,0q-1.69.53-3.39,1c-1.79.52-3.58,1-5.38,1.46-1.19.3-2.38.58-3.58.85s-2.26.5-3.4.74l-.27.05c-1.18.24-2.37.47-3.56.68l-1.82.31-1.84.29c-.55.09-1.11.17-1.66.24l-2,.28a154.51,154.51,0,0,1-21.37,1.21l-1.28,0a176.84,176.84,0,0,1-19.35-1.45l-1.41-.19-2.43-.34-1.89-.3c-2.67-.42-5.32-.9-8-1.44-.59-.11-1.17-.23-1.75-.36-1.78-.37-3.57-.77-5.34-1.19-1.19-.28-2.37-.57-3.55-.87l-1.77-.46-1.77-.47c-2.35-.63-4.69-1.31-7-2q-4.06-1.23-8.08-2.61l-2.92-1c-3-1.07-6-2.2-9-3.37l-1.63-.66-1.31-.57-.88-.4c-1.94-.88-4-1.91-6.32-3.07l-1.16-.6c-1.39-.73-2.84-1.5-4.33-2.32-3.13-1.72-6.48-3.62-10-5.69-40-23.54-101.26-67.72-115.64-84.47-.73-.85-1.44-1.71-2.15-2.58-.55-.68-1.1-1.37-1.63-2.07s-1-1.26-1.44-1.91-.83-1.13-1.23-1.71-.76-1.07-1.13-1.61l-.08-.12c-.45-.67-.9-1.34-1.34-2s-.84-1.3-1.24-2c-.2-.31-.39-.63-.58-.95q-.67-1.11-1.32-2.22v0c-.46-.82-.92-1.64-1.37-2.47-.78-1.45-1.53-2.91-2.23-4.39l-.54-1.15a91.47,91.47,0,0,1-3.74-9.29c-.39-1.1-.74-2.21-1.08-3.32-.43-1.43-.82-2.87-1.18-4.31-.07-.29-.14-.57-.2-.86-.18-.75-.35-1.51-.5-2.27-.23-1.06-.43-2.12-.6-3.19,0-.26-.09-.52-.12-.78-.09-.55-.17-1.1-.24-1.66s-.17-1.33-.24-2c0-.23-.05-.45-.07-.67-.06-.57-.1-1.14-.15-1.7a.61.61,0,0,0,0-.14c-.05-.68-.09-1.35-.11-2a1.28,1.28,0,0,1,0-.19q0-1.06-.06-2.13c0-1.73,0-3.45.11-5.17,0-.68.09-1.36.15-2,.12-1.34.28-2.68.48-4,.1-.68.21-1.36.34-2q.36-2,.87-4.05a69.72,69.72,0,0,1,3.45-10.25,72.21,72.21,0,0,1,3.59-7.34c.1-.2.22-.41.34-.61,5.39-9.49,12.72-17.91,21-25.71l1.42-1.33,1.26-1.14c1-.87,1.91-1.72,2.88-2.58l.18-.16q2.32-2,4.71-4c2.45-2.05,4.94-4.06,7.45-6.06l.25-.2c2.15-1.7,4.32-3.39,6.48-5.07l3.26-2.52c2.31-1.78,4.62-3.56,6.89-5.34l2.64-2.07c1-.76,1.92-1.52,2.87-2.28a213.69,213.69,0,0,0,23.86-22.64q2.08-2.28,4.14-4.59c.65-.74,1.3-1.47,1.94-2.21,9.13-10.4,17.62-20.92,27.07-30.85q3.38-3.55,6.92-7c2-1.91,4-3.79,6.14-5.63C162,105.11,164.43,103,167,101c3.55-2.76,7.29-5.41,11.29-7.94,1-.63,2-1.24,2.93-1.84,99.71-62,173.1-41.74,222.06,0Q408.85,96,414,101c2.08,2,4.09,4.09,6,6.19.22.22.42.45.63.69q2.06,2.19,4,4.41l1.15,1.32c.57.66,1.14,1.32,1.7,2s1.37,1.63,2.05,2.45l1.27,1.56c2.73,3.36,5.33,6.77,7.81,10.2.5.68,1,1.37,1.48,2.06,3.42,4.8,6.6,9.65,9.55,14.47l1.25,2.06q.63,1,1.23,2.07l1.19,2.05c.4.69.79,1.37,1.17,2.05l1.14,2c.39.68.76,1.36,1.11,2l1.09,2c.36.67.71,1.35,1.06,2l1,2,1,2q2,4,3.73,7.82c.58,1.3,1.16,2.59,1.71,3.86,2.49,5.72,4.62,11.19,6.36,16.28a.19.19,0,0,1,0,.07c.17.49.33,1,.49,1.45s.33,1,.49,1.48.25.75.36,1.13c.18.56.36,1.12.53,1.69s.37,1.22.54,1.83c.33,1.12.65,2.24,1,3.37.26.95.51,1.9.75,2.86,0,.18.1.35.14.53s.07.3.11.45c.14.56.28,1.12.41,1.69.36,1.49.69,3,1,4.49.17.82.34,1.63.49,2.45l.09.46q.23,1.15.42,2.31c.18,1,.35,2.07.5,3.1.13.78.24,1.57.35,2.36,0,.11,0,.23.05.35.07.52.14,1,.2,1.58s.11.88.16,1.31c.18,1.59.34,3.17.47,4.76l.09,1.08.12,1.81c0,.67.08,1.34.11,2,0,.52.05,1,.07,1.55,0,.76.05,1.53.06,2.29S481.72,244.94,481.72,245.83Z" style="fill:#fff"></path></g></g><g id="freepik--Keyboard--inject-4"><rect x="145.68" y="272.76" width="230.67" height="97.15" style="fill:#E1AFD1;stroke:#263238;stroke-linecap:round;stroke-linejoin:round"></rect><rect x="150.5" y="278.64" width="21.7" height="12.01" style="fill:#fff;stroke:#263238;stroke-miterlimit:10"></rect><rect x="336.83" y="337.2" width="34.18" height="12.01" style="fill:#fff;stroke:#263238;stroke-miterlimit:10"></rect><rect x="349.91" y="293.64" width="21.1" height="12.01" style="fill:#fff;stroke:#263238;stroke-miterlimit:10"></rect><rect x="150.5" y="322.39" width="21.7" height="12.01" style="fill:#fff;stroke:#263238;stroke-miterlimit:10"></rect><rect x="150.5" y="307.92" width="17.57" height="12.01" style="fill:#fff;stroke:#263238;stroke-miterlimit:10"></rect><rect x="150.5" y="293.28" width="12.01" height="12.01" style="fill:#fff;stroke:#263238;stroke-miterlimit:10"></rect><rect x="165.84" y="293.28" width="12.01" height="12.01" style="fill:#fff;stroke:#263238;stroke-miterlimit:10"></rect><rect x="181.17" y="293.28" width="12.01" height="12.01" style="fill:#fff;stroke:#263238;stroke-miterlimit:10"></rect><rect x="196.5" y="293.28" width="12.01" height="12.01" style="fill:#fff;stroke:#263238;stroke-miterlimit:10"></rect><rect x="211.84" y="293.28" width="12.01" height="12.01" style="fill:#fff;stroke:#263238;stroke-miterlimit:10"></rect><rect x="227.17" y="293.28" width="12.01" height="12.01" style="fill:#fff;stroke:#263238;stroke-miterlimit:10"></rect><rect x="242.5" y="293.28" width="12.01" height="12.01" style="fill:#fff;stroke:#263238;stroke-miterlimit:10"></rect><rect x="257.84" y="293.28" width="12.01" height="12.01" style="fill:#fff;stroke:#263238;stroke-miterlimit:10"></rect><rect x="273.17" y="293.28" width="12.01" height="12.01" style="fill:#fff;stroke:#263238;stroke-miterlimit:10"></rect><rect x="288.5" y="293.28" width="12.01" height="12.01" style="fill:#fff;stroke:#263238;stroke-miterlimit:10"></rect><rect x="303.84" y="293.28" width="12.01" height="12.01" style="fill:#fff;stroke:#263238;stroke-miterlimit:10"></rect><rect x="319.17" y="293.28" width="12.01" height="12.01" style="fill:#fff;stroke:#263238;stroke-miterlimit:10"></rect><rect x="334.51" y="293.28" width="12.01" height="12.01" style="fill:#fff;stroke:#263238;stroke-miterlimit:10"></rect><rect x="150.5" y="352.02" width="12.01" height="12.01" style="fill:#fff;stroke:#263238;stroke-miterlimit:10"></rect><rect x="165.84" y="352.02" width="12.01" height="12.01" style="fill:#fff;stroke:#263238;stroke-miterlimit:10"></rect><rect x="181.17" y="352.02" width="12.01" height="12.01" style="fill:#fff;stroke:#263238;stroke-miterlimit:10"></rect><rect x="196.5" y="352.02" width="14.66" height="12.01" style="fill:#fff;stroke:#263238;stroke-miterlimit:10"></rect><rect x="214.48" y="352.02" width="73.35" height="12.01" style="fill:#fff;stroke:#263238;stroke-miterlimit:10"></rect><rect x="312.49" y="352.02" width="12.01" height="12.01" style="fill:#fff;stroke:#263238;stroke-miterlimit:10"></rect><rect x="327.82" y="352.02" width="12.01" height="12.01" style="fill:#fff;stroke:#263238;stroke-miterlimit:10"></rect><rect x="343.18" y="352.02" width="12.01" height="12.01" style="fill:#fff;stroke:#263238;stroke-miterlimit:10"></rect><rect x="290.83" y="352.02" width="18.65" height="12.01" style="fill:#fff;stroke:#263238;stroke-miterlimit:10"></rect><rect x="359" y="352.02" width="12.01" height="12.01" style="fill:#fff;stroke:#263238;stroke-miterlimit:10"></rect><rect x="171.48" y="307.92" width="12.01" height="12.01" style="fill:#fff;stroke:#263238;stroke-miterlimit:10"></rect><rect x="186.81" y="307.92" width="12.01" height="12.01" style="fill:#fff;stroke:#263238;stroke-miterlimit:10"></rect><rect x="202.15" y="307.92" width="12.01" height="12.01" style="fill:#fff;stroke:#263238;stroke-miterlimit:10"></rect><rect x="217.48" y="307.92" width="12.01" height="12.01" style="fill:#fff;stroke:#263238;stroke-miterlimit:10"></rect><rect x="232.82" y="307.92" width="12.01" height="12.01" style="fill:#fff;stroke:#263238;stroke-miterlimit:10"></rect><rect x="248.15" y="307.92" width="12.01" height="12.01" style="fill:#fff;stroke:#263238;stroke-miterlimit:10"></rect><rect x="263.48" y="307.92" width="12.01" height="12.01" style="fill:#fff;stroke:#263238;stroke-miterlimit:10"></rect><rect x="278.82" y="307.92" width="12.01" height="12.01" style="fill:#fff;stroke:#263238;stroke-miterlimit:10"></rect><rect x="294.15" y="307.92" width="12.01" height="12.01" style="fill:#fff;stroke:#263238;stroke-miterlimit:10"></rect><rect x="309.48" y="307.92" width="12.01" height="12.01" style="fill:#fff;stroke:#263238;stroke-miterlimit:10"></rect><rect x="324.82" y="307.92" width="12.01" height="12.01" style="fill:#fff;stroke:#263238;stroke-miterlimit:10"></rect><rect x="340.15" y="307.92" width="12.01" height="12.01" style="fill:#fff;stroke:#263238;stroke-miterlimit:10"></rect><polygon points="371.01 307.92 371.01 334.58 359 334.58 359 319.94 355.48 319.94 355.48 307.92 371.01 307.92" style="fill:#fff;stroke:#263238;stroke-miterlimit:10"></polygon><rect x="175" y="322.56" width="12.01" height="12.01" style="fill:#fff;stroke:#263238;stroke-miterlimit:10"></rect><rect x="190.33" y="322.56" width="12.01" height="12.01" style="fill:#fff;stroke:#263238;stroke-miterlimit:10"></rect><rect x="205.66" y="322.56" width="12.01" height="12.01" style="fill:#fff;stroke:#263238;stroke-miterlimit:10"></rect><rect x="221" y="322.56" width="12.01" height="12.01" style="fill:#fff;stroke:#263238;stroke-miterlimit:10"></rect><rect x="236.33" y="322.56" width="12.01" height="12.01" style="fill:#fff;stroke:#263238;stroke-miterlimit:10"></rect><rect x="251.67" y="322.56" width="12.01" height="12.01" style="fill:#fff;stroke:#263238;stroke-miterlimit:10"></rect><rect x="267" y="322.56" width="12.01" height="12.01" style="fill:#fff;stroke:#263238;stroke-miterlimit:10"></rect><rect x="282.33" y="322.56" width="12.01" height="12.01" style="fill:#fff;stroke:#263238;stroke-miterlimit:10"></rect><rect x="297.67" y="322.56" width="12.01" height="12.01" style="fill:#fff;stroke:#263238;stroke-miterlimit:10"></rect><rect x="313" y="322.56" width="12.01" height="12.01" style="fill:#fff;stroke:#263238;stroke-miterlimit:10"></rect><rect x="328.33" y="322.56" width="12.01" height="12.01" style="fill:#fff;stroke:#263238;stroke-miterlimit:10"></rect><rect x="343.67" y="322.56" width="12.01" height="12.01" style="fill:#fff;stroke:#263238;stroke-miterlimit:10"></rect><rect x="168.48" y="337.2" width="12.01" height="12.01" style="fill:#fff;stroke:#263238;stroke-miterlimit:10"></rect><rect x="183.81" y="337.2" width="12.01" height="12.01" style="fill:#fff;stroke:#263238;stroke-miterlimit:10"></rect><rect x="199.15" y="337.2" width="12.01" height="12.01" style="fill:#fff;stroke:#263238;stroke-miterlimit:10"></rect><rect x="214.48" y="337.2" width="12.01" height="12.01" style="fill:#fff;stroke:#263238;stroke-miterlimit:10"></rect><rect x="229.81" y="337.2" width="12.01" height="12.01" style="fill:#fff;stroke:#263238;stroke-miterlimit:10"></rect><rect x="245.15" y="337.2" width="12.01" height="12.01" style="fill:#fff;stroke:#263238;stroke-miterlimit:10"></rect><rect x="260.48" y="337.2" width="12.01" height="12.01" style="fill:#fff;stroke:#263238;stroke-miterlimit:10"></rect><rect x="275.82" y="337.2" width="12.01" height="12.01" style="fill:#fff;stroke:#263238;stroke-miterlimit:10"></rect><rect x="291.15" y="337.2" width="12.01" height="12.01" style="fill:#fff;stroke:#263238;stroke-miterlimit:10"></rect><rect x="306.48" y="337.2" width="12.01" height="12.01" style="fill:#fff;stroke:#263238;stroke-miterlimit:10"></rect><rect x="321.82" y="337.2" width="12.01" height="12.01" style="fill:#fff;stroke:#263238;stroke-miterlimit:10"></rect><rect x="175" y="279.36" width="12.01" height="12.01" style="fill:#fff;stroke:#263238;stroke-miterlimit:10"></rect><rect x="190.33" y="279.36" width="12.01" height="12.01" style="fill:#fff;stroke:#263238;stroke-miterlimit:10"></rect><rect x="205.66" y="279.36" width="12.01" height="12.01" style="fill:#fff;stroke:#263238;stroke-miterlimit:10"></rect><rect x="221" y="279.36" width="12.01" height="12.01" style="fill:#fff;stroke:#263238;stroke-miterlimit:10"></rect><rect x="236.33" y="279.36" width="12.01" height="12.01" style="fill:#fff;stroke:#263238;stroke-miterlimit:10"></rect><rect x="251.67" y="279.36" width="12.01" height="12.01" style="fill:#fff;stroke:#263238;stroke-miterlimit:10"></rect><rect x="267" y="279.36" width="12.01" height="12.01" style="fill:#fff;stroke:#263238;stroke-miterlimit:10"></rect><rect x="282.33" y="279.36" width="12.01" height="12.01" style="fill:#fff;stroke:#263238;stroke-miterlimit:10"></rect><rect x="297.67" y="279.36" width="12.01" height="12.01" style="fill:#fff;stroke:#263238;stroke-miterlimit:10"></rect><rect x="313" y="279.36" width="12.01" height="12.01" style="fill:#fff;stroke:#263238;stroke-miterlimit:10"></rect><rect x="328.33" y="279.36" width="12.01" height="12.01" style="fill:#fff;stroke:#263238;stroke-miterlimit:10"></rect><rect x="343.67" y="279.36" width="12.01" height="12.01" style="fill:#fff;stroke:#263238;stroke-miterlimit:10"></rect><rect x="359" y="279.36" width="12.01" height="12.01" style="fill:#fff;stroke:#263238;stroke-miterlimit:10"></rect><rect x="150.5" y="337.2" width="14.55" height="12.01" style="fill:#fff;stroke:#263238;stroke-miterlimit:10"></rect><polygon points="145.68 273.38 150.5 271.78 373.22 271.78 376.39 273.36 145.68 273.38" style="fill:#263238"></polygon></g><g id="freepik--Monitor--inject-4"><path d="M424.64,112.33a127,127,0,0,1-19.9,14c-36.41,21.54-77.54,34.44-119.38,40.73s-84.44,6.1-126.6,2.63c-8.28-.68-16.7-1.52-24.31-4.86-6.45-2.84-12.3-7.78-15-14.17,9.13-10.4,17.62-20.92,27.07-30.85q3.38-3.55,6.92-7c2-1.91,4-3.79,6.14-5.63C162,105.11,164.43,103,167,101c3.55-2.76,7.29-5.41,11.29-7.94,1-.63,2-1.24,2.93-1.84,99.71-62,173.1-41.74,222.06,0Q408.85,96,414,101c2.08,2,4.09,4.09,6,6.19.22.22.42.45.63.69Q422.7,110.11,424.64,112.33Z" style="opacity:0.2"></path><path d="M428.58,102.39,93.11,103.92l5.07-7.61a13.17,13.17,0,0,1,10.94-5.85H412.68a13.14,13.14,0,0,1,10.24,4.91Z" style="fill:#fff;stroke:#263238;stroke-linecap:round;stroke-linejoin:round"></path><rect x="214.16" y="152.67" width="86.68" height="86.68" rx="34.15" style="fill:#757575;stroke:#263238;stroke-linecap:round;stroke-linejoin:round"></rect><path d="M229.91,203.34v12.32a7,7,0,0,0,7,7h42.27a7,7,0,0,0,7-6.95c.05-5.55.35-12.37.35-12.37Z" style="fill:#999;stroke:#263238;stroke-linecap:round;stroke-linejoin:round"></path><path d="M384.62,207.45H137.41a6.33,6.33,0,0,1-5.9-4L93.38,105.56A3.9,3.9,0,0,1,97,100.24H425a3.9,3.9,0,0,1,3.64,5.32l-38.13,97.86A6.33,6.33,0,0,1,384.62,207.45Z" style="fill:#bfbfbf;stroke:#263238;stroke-linecap:round;stroke-linejoin:round"></path><polygon points="386.45 198.93 134.98 198.93 100.38 106.44 420.89 106.44 386.45 198.93" style="fill:#263238"></polygon><rect x="230.18" y="207.32" width="56.06" height="3.84" style="fill:#263238"></rect><path d="M349.72,195H172.14c-1,0-1.9-.44-2.08-1L144.8,113.71c-.28-.9.51-1.63,1.77-1.63H375.29c1.26,0,2,.73,1.76,1.63L351.8,194C351.62,194.51,350.69,195,349.72,195Z" style="fill:#E1AFD1"></path><polygon points="349.06 193.13 172.8 193.13 151.33 122.62 370.53 122.62 349.06 193.13" style="fill:#263238"></polygon><path d="M198.1,140.13H164.73c-.83,0-1.37.44-1.21,1a1.81,1.81,0,0,0,1.76,1h33.18c.82,0,1.4-.44,1.31-1S198.92,140.13,198.1,140.13Z" style="fill:#fff"></path><path d="M199.21,146.22H170.83c-.81,0-1.35.43-1.2,1a1.77,1.77,0,0,0,1.71.95h28.22c.81,0,1.38-.43,1.29-.95S200,146.22,199.21,146.22Z" style="fill:#fff"></path><path d="M200.29,152.1h-32.2c-.8,0-1.32.42-1.18.92a1.76,1.76,0,0,0,1.7.92h32c.79,0,1.36-.41,1.27-.92S201.09,152.1,200.29,152.1Z" style="fill:#fff;opacity:0.5"></path><path d="M201.33,157.78H182.42c-.78,0-1.32.4-1.2.89s.85.89,1.63.89h18.81c.78,0,1.34-.4,1.25-.89S202.11,157.78,201.33,157.78Z" style="fill:#fff"></path><path d="M202.34,163.26H171.22c-.76,0-1.28.39-1.14.87s.86.85,1.63.85h30.94c.77,0,1.32-.38,1.24-.85S203.11,163.26,202.34,163.26Z" style="fill:#fff"></path><path d="M203.31,168.57H178.19c-.76,0-1.27.37-1.15.83s.83.83,1.58.83h25c.75,0,1.29-.37,1.21-.83S204.07,168.57,203.31,168.57Z" style="fill:#fff"></path><path d="M204.25,173.7H179.54c-.75,0-1.25.36-1.13.8s.81.81,1.55.81h24.59c.74,0,1.27-.36,1.19-.81S205,173.7,204.25,173.7Z" style="fill:#fff"></path><path d="M205.16,178.66h-27c-.73,0-1.23.35-1.11.78s.8.78,1.53.78h26.83c.73,0,1.26-.35,1.18-.78S205.9,178.66,205.16,178.66Z" style="fill:#fff"></path><path d="M206.05,183.47H188.63c-.72,0-1.22.34-1.12.76s.77.75,1.48.75h17.33c.72,0,1.24-.34,1.17-.75S206.77,183.47,206.05,183.47Z" style="fill:#fff;opacity:0.5"></path><path d="M196.94,133.81H172.07c-.84,0-1.4.46-1.25,1a1.8,1.8,0,0,0,1.77,1h24.72c.84,0,1.43-.45,1.33-1A1.66,1.66,0,0,0,196.94,133.81Z" style="fill:#fff;opacity:0.5"></path><path d="M195.73,127.26H161.11c-.85,0-1.41.48-1.24,1.07a1.92,1.92,0,0,0,1.84,1.06h34.41c.85,0,1.46-.48,1.35-1.06A1.69,1.69,0,0,0,195.73,127.26Z" style="fill:#fff"></path><path d="M206.9,188.13H178.21c-.71,0-1.19.33-1.08.73s.78.73,1.49.73h28.55c.7,0,1.22-.32,1.15-.73S207.61,188.13,206.9,188.13Z" style="fill:#fff"></path><polygon points="209.82 142.35 216.29 142.35 215.97 139.88 209.45 139.88 209.82 142.35" style="fill:#fff;opacity:0.5"></polygon><polygon points="210.72 148.37 217.08 148.37 216.77 145.98 210.36 145.98 210.72 148.37" style="fill:#fff;opacity:0.5"></polygon><polygon points="211.59 154.17 217.84 154.17 217.54 151.87 211.25 151.87 211.59 154.17" style="fill:#fff;opacity:0.5"></polygon><polygon points="212.43 159.78 218.58 159.78 218.28 157.56 212.1 157.56 212.43 159.78" style="fill:#fff;opacity:0.5"></polygon><polygon points="213.25 165.2 219.29 165.2 219 163.05 212.93 163.05 213.25 165.2" style="fill:#fff;opacity:0.5"></polygon><polygon points="214.03 170.44 219.97 170.44 219.7 168.36 213.72 168.36 214.03 170.44" style="fill:#fff;opacity:0.5"></polygon><polygon points="214.8 175.51 220.64 175.51 220.38 173.5 214.5 173.5 214.8 175.51" style="fill:#fff;opacity:0.5"></polygon><polygon points="215.53 180.41 221.28 180.41 221.03 178.47 215.24 178.47 215.53 180.41" style="fill:#fff;opacity:0.5"></polygon><polygon points="216.25 185.17 221.91 185.17 221.66 183.28 215.96 183.28 216.25 185.17" style="fill:#fff;opacity:0.5"></polygon><polygon points="208.88 136.12 215.47 136.12 215.14 133.56 208.5 133.56 208.88 136.12" style="fill:#fff;opacity:0.5"></polygon><polygon points="207.91 129.65 214.62 129.65 214.28 126.99 207.51 126.99 207.91 129.65" style="fill:#fff;opacity:0.5"></polygon><polygon points="216.94 189.78 222.51 189.78 222.27 187.95 216.66 187.95 216.94 189.78" style="fill:#fff;opacity:0.5"></polygon><path d="M251.05,179.44c0-.43.56-.78,1.29-.78h95.82c.73,0,1.22.35,1.1.78a1.62,1.62,0,0,1-1.54.78H252.39C251.66,180.22,251.06,179.87,251.05,179.44Z" style="fill:#fff"></path><path d="M349.13,175.31H296.07c-.74,0-1.3-.36-1.25-.81s.69-.8,1.44-.8h53.33c.74,0,1.24.36,1.11.8A1.63,1.63,0,0,1,349.13,175.31Z" style="fill:#fff"></path><path d="M283.48,175.31H267c-.74,0-1.34-.36-1.33-.81s.61-.8,1.36-.8H283.6c.74,0,1.32.36,1.28.8S284.22,175.31,283.48,175.31Z" style="fill:#fff;opacity:0.5"></path><path d="M317.92,170.23H243.08c-.75,0-1.38-.37-1.41-.83s.56-.83,1.32-.83h75.24c.75,0,1.3.37,1.21.83S318.68,170.23,317.92,170.23Z" style="fill:#fff"></path><path d="M227.43,168.57h5.34c.75,0,1.4.37,1.44.83s-.54.83-1.29.83h-5.31c-.75,0-1.4-.37-1.45-.83S226.68,168.57,227.43,168.57Z" style="fill:#fff;opacity:0.5"></path><path d="M328.75,164.13c-.1.47-.8.85-1.57.85H256.66c-.77,0-1.39-.38-1.4-.85s.61-.87,1.37-.87h70.91C328.31,163.26,328.85,163.65,328.75,164.13Z" style="fill:#fff"></path><path d="M226.87,163.26h20c.77,0,1.41.39,1.43.87s-.59.85-1.35.85H227.05c-.76,0-1.42-.38-1.48-.85S226.1,163.26,226.87,163.26Z" style="fill:#fff"></path><path d="M226.28,157.78h76.94c.78,0,1.36.4,1.29.89s-.75.89-1.53.89H226.47c-.77,0-1.45-.4-1.5-.89S225.5,157.78,226.28,157.78Z" style="fill:#fff"></path><path d="M276.23,153.94c-.79,0-1.41-.41-1.39-.92s.68-.92,1.48-.92h40.59c.8,0,1.37.42,1.28.92s-.8.92-1.59.92Z" style="fill:#fff"></path><path d="M225.68,152.1h35.13c.8,0,1.44.42,1.44.92s-.65.92-1.44.92H225.88c-.8,0-1.48-.41-1.54-.92S224.88,152.1,225.68,152.1Z" style="fill:#fff"></path><path d="M356.93,148.13H260.22c-.8,0-1.46-.43-1.46-.95s.65-1,1.46-1h97.25c.81,0,1.34.43,1.19,1A1.81,1.81,0,0,1,356.93,148.13Z" style="fill:#fff"></path><path d="M358.65,142.11H273.56c-.82,0-1.47-.44-1.45-1s.7-1,1.52-1h85.59c.82,0,1.36.44,1.2,1A1.83,1.83,0,0,1,358.65,142.11Z" style="fill:#fff"></path><path d="M360.45,135.86H342.63c-.84,0-1.41-.45-1.28-1a1.77,1.77,0,0,1,1.76-1H361c.84,0,1.39.46,1.22,1A1.86,1.86,0,0,1,360.45,135.86Z" style="fill:#fff;opacity:0.5"></path><path d="M330.16,135.86H264.73c-.83,0-1.51-.45-1.5-1s.68-1,1.52-1h65.82c.84,0,1.42.46,1.31,1A1.71,1.71,0,0,1,330.16,135.86Z" style="fill:#fff"></path><path d="M229,183.47h60.43c.72,0,1.27.34,1.22.76s-.65.75-1.37.75H229.19c-.72,0-1.34-.34-1.39-.75S228.3,183.47,229,183.47Z" style="fill:#fff"></path><path d="M229.52,188.13h92.84c.7,0,1.21.33,1.12.73s-.72.73-1.43.73H229.68c-.71,0-1.32-.32-1.36-.73S228.81,188.13,229.52,188.13Z" style="fill:#fff"></path><path d="M326.91,129.39H279.65c-.85,0-1.51-.48-1.48-1.06s.74-1.07,1.6-1.07h47.54c.86,0,1.46.48,1.35,1.07A1.74,1.74,0,0,1,326.91,129.39Z" style="fill:#fff"></path><path d="M266.25,129.39h-43c-.85,0-1.6-.48-1.66-1.06s.57-1.07,1.43-1.07h43.25c.85,0,1.54.48,1.53,1.07S267.1,129.39,266.25,129.39Z" style="fill:#fff;opacity:0.5"></path><path d="M302.85,183.47c.72,0,1.26.34,1.2.76s-.69.75-1.41.75H298c-.71,0-1.25-.34-1.2-.75s.67-.76,1.39-.76Z" style="fill:#fff;opacity:0.5"></path><path d="M245.54,179.44c0,.43-.55.78-1.28.78H237.9c-.73,0-1.35-.35-1.38-.78s.53-.78,1.26-.78h6.39C244.9,178.66,245.52,179,245.54,179.44Z" style="fill:#fff;opacity:0.5"></path><path d="M322.29,158.67c-.09.49-.8.89-1.57.89h-7.44c-.78,0-1.34-.4-1.27-.89s.78-.89,1.56-.89h7.48C321.83,157.78,322.39,158.18,322.29,158.67Z" style="fill:#fff;opacity:0.5"></path><path d="M345.5,163.26c.77,0,1.29.39,1.16.87a1.66,1.66,0,0,1-1.61.85h-5.93c-.77,0-1.29-.38-1.18-.85a1.62,1.62,0,0,1,1.6-.87Z" style="fill:#fff;opacity:0.5"></path><path d="M248.51,148.13c-.8,0-1.47-.43-1.5-.95s.62-1,1.43-1h6.31c.81,0,1.47.43,1.48,1s-.64.95-1.44.95Z" style="fill:#fff;opacity:0.5"></path><path d="M162.57,117.34a2.13,2.13,0,0,1-2.1,3,4.44,4.44,0,0,1-3.94-3,2.13,2.13,0,0,1,2.08-3A4.42,4.42,0,0,1,162.57,117.34Z" style="fill:#fff"></path><path d="M170.71,117.39a2.2,2.2,0,0,1-2.2,3,4.27,4.27,0,0,1-3.84-3,2.21,2.21,0,0,1,2.18-3A4.24,4.24,0,0,1,170.71,117.39Z" style="fill:#fff"></path><path d="M178.94,117.34a2.27,2.27,0,0,1-2.29,3,4.09,4.09,0,0,1-3.75-3,2.28,2.28,0,0,1,2.28-3A4.06,4.06,0,0,1,178.94,117.34Z" style="fill:#fff"></path><polygon points="100.38 106.44 127.33 178.47 159.84 106.44 100.38 106.44" style="fill:#fff;opacity:0.1"></polygon><polygon points="145.85 198.93 199.78 106.44 256.23 106.44 176.86 198.93 145.85 198.93" style="fill:#fff;opacity:0.1"></polygon><polygon points="280.56 105.98 196.5 198.93 209.45 198.93 296.52 106.44 280.56 105.98" style="fill:#fff;opacity:0.1"></polygon><polygon points="297.16 198.93 389.54 106.44 402.58 106.44 307.33 198.93 297.16 198.93" style="fill:#fff;opacity:0.1"></polygon></g><g id="freepik--speech-bubbles--inject-4"><path d="M171.9,239.07H150.81a5,5,0,0,0-5,5v10.26a5,5,0,0,0,5,5h5.51l4.18,9.47,5.89-9.47h5.51a5,5,0,0,0,5-5V244A5,5,0,0,0,171.9,239.07Z" style="fill:#fff;stroke:#263238;stroke-linecap:round;stroke-linejoin:round"></path><path d="M158.42,244.94a1,1,0,0,1,1-1,1,1,0,0,1,1,.93,1,1,0,0,1-1,1A1,1,0,0,1,158.42,244.94Zm.22,2.09h1.61v6.86h-1.61Z" style="fill:#263238"></path><path d="M164.12,246.67v.41H166v1.29h-1.83v5.52h-1.61v-5.52h-1.13v-1.29h1.13v-.43a2.22,2.22,0,0,1,2.45-2.38,2.64,2.64,0,0,1,1.46.37l-.45,1.21a1.59,1.59,0,0,0-.89-.28C164.47,245.57,164.12,245.94,164.12,246.67Z" style="fill:#263238"></path><path d="M236.12,240.5H215a5,5,0,0,0-5,5v10.27a5,5,0,0,0,5,5h5.52l4.17,9.47,5.89-9.47h5.52a5,5,0,0,0,5-5V245.46A5,5,0,0,0,236.12,240.5Z" style="fill:#fff;stroke:#263238;stroke-linecap:round;stroke-linejoin:round"></path><path d="M219.46,252.41h-5.39a2.08,2.08,0,0,0,2.23,1.65,2.46,2.46,0,0,0,1.86-.75l.86,1a3.85,3.85,0,0,1-6.55-2.4,3.41,3.41,0,0,1,3.54-3.51,3.34,3.34,0,0,1,3.47,3.55C219.48,252.07,219.47,252.26,219.46,252.41Zm-5.4-1.06H218a1.86,1.86,0,0,0-1.94-1.67A1.89,1.89,0,0,0,214.06,251.35Z" style="fill:#263238"></path><path d="M221,245.8h1.6v9.53H221Z" style="fill:#263238"></path><path d="M224,254.65l.61-1.22a4.62,4.62,0,0,0,2.39.68c1,0,1.44-.28,1.44-.76,0-1.31-4.24-.08-4.24-2.81,0-1.3,1.17-2.15,3-2.15a5.51,5.51,0,0,1,2.57.59l-.62,1.22a3.78,3.78,0,0,0-2-.51c-1,0-1.44.32-1.44.77,0,1.39,4.24.15,4.24,2.84,0,1.28-1.18,2.12-3.11,2.12A5.4,5.4,0,0,1,224,254.65Z" style="fill:#263238"></path><path d="M237.77,252.41h-5.39a2.08,2.08,0,0,0,2.23,1.65,2.46,2.46,0,0,0,1.86-.75l.86,1a3.85,3.85,0,0,1-6.55-2.4,3.41,3.41,0,0,1,3.54-3.51,3.34,3.34,0,0,1,3.47,3.55C237.79,252.07,237.78,252.26,237.77,252.41Zm-5.4-1.06h3.89a1.86,1.86,0,0,0-1.94-1.67A1.89,1.89,0,0,0,232.37,251.35Z" style="fill:#263238"></path><path d="M298.38,239.9h-21.1a5,5,0,0,0-5,4.95v10.27a5,5,0,0,0,5,5h5.52l4.17,9.47,5.89-9.47h5.52a5,5,0,0,0,5-5V244.85A5,5,0,0,0,298.38,239.9Z" style="fill:#fff;stroke:#263238;stroke-linecap:round;stroke-linejoin:round"></path><path d="M282.12,247.5v.41H284v1.29h-1.84v5.52h-1.6V249.2h-1.13v-1.29h1.13v-.43A2.22,2.22,0,0,1,283,245.1a2.54,2.54,0,0,1,1.45.37l-.45,1.21a1.54,1.54,0,0,0-.88-.28C282.47,246.4,282.12,246.77,282.12,247.5Z" style="fill:#263238"></path><path d="M284.42,251.29a3.66,3.66,0,1,1,3.65,3.52A3.46,3.46,0,0,1,284.42,251.29Zm5.69,0a2,2,0,1,0-2,2.15A2,2,0,0,0,290.11,251.29Z" style="fill:#263238"></path><path d="M297.23,247.78v1.53a2.6,2.6,0,0,0-.37,0,1.87,1.87,0,0,0-2,2.12v3.33h-1.61v-6.86h1.53v1A2.71,2.71,0,0,1,297.23,247.78Z" style="fill:#263238"></path><path d="M359.74,239.07h-21.1a5,5,0,0,0-5,5v10.26a5,5,0,0,0,5,5h5.52l4.17,9.47,5.89-9.47h5.52a5,5,0,0,0,5-5V244A5,5,0,0,0,359.74,239.07Z" style="fill:#fff;stroke:#263238;stroke-linecap:round;stroke-linejoin:round"></path><path d="M346.45,246.69h5.92V248h-5.92Zm0,3.11h5.92v1.29h-5.92Z" style="fill:#263238"></path><path d="M204.06,227.19H183a5,5,0,0,0-5,5v10.26a5,5,0,0,0,5,5h5.52l4.17,9.47,5.89-9.47h5.52a5,5,0,0,0,5-5V232.15A5,5,0,0,0,204.06,227.19Z" style="fill:#fff;stroke:#263238;stroke-linecap:round;stroke-linejoin:round"></path><path d="M188.55,231.45h3.07v1.29h-1.47v9.45h1.47v1.29h-3.07Z" style="fill:#263238"></path><path d="M195.6,243.48v-1.29h1.45v-9.45H195.6v-1.29h3.05v12Z" style="fill:#263238"></path><path d="M266.78,226.14h-21.1a5,5,0,0,0-5,5v10.26a5,5,0,0,0,5,5h5.52l4.18,9.47,5.89-9.47h5.51a5,5,0,0,0,5-5V231.1A5,5,0,0,0,266.78,226.14Z" style="fill:#fff;stroke:#263238;stroke-linecap:round;stroke-linejoin:round"></path><path d="M251.94,236.38c.51.16.76.51.76,1.31v2.44a.86.86,0,0,0,1,1h.27v1.29h-.65a1.91,1.91,0,0,1-2.18-2.1v-2.64c0-.43-.22-.62-.58-.62h-.42v-1.31h.42c.36,0,.58-.19.58-.62v-2.64a1.91,1.91,0,0,1,2.18-2.1h.65v1.29h-.27a.86.86,0,0,0-1,1v2.44C252.7,235.86,252.45,236.21,251.94,236.38Z" style="fill:#263238"></path><path d="M261.74,235.72V237h-.44c-.35,0-.57.19-.57.62v2.64a1.91,1.91,0,0,1-2.19,2.1h-.65V241.1h.27a.87.87,0,0,0,1-1v-2.44c0-.8.23-1.15.74-1.31-.51-.17-.74-.52-.74-1.32v-2.44a.87.87,0,0,0-1-1h-.27v-1.29h.65a1.91,1.91,0,0,1,2.19,2.1v2.64c0,.43.22.62.57.62Z" style="fill:#263238"></path><path d="M328.84,224.06h-21.1a5,5,0,0,0-5,5v10.26a5,5,0,0,0,5,5h5.51l4.18,9.47,5.89-9.47h5.52a5,5,0,0,0,5-5V229A5,5,0,0,0,328.84,224.06Z" style="fill:#fff;stroke:#263238;stroke-linecap:round;stroke-linejoin:round"></path><path d="M317.45,231.66a1.06,1.06,0,1,1,2.11,0,1.06,1.06,0,1,1-2.11,0Zm2.11,4.89a3,3,0,0,1-.3,1.11l-.66,1.81h-1l.52-2a1,1,0,0,1-.61-.95,1,1,0,1,1,2.09,0Z" style="fill:#263238"></path><path d="M246.36,403.5h21.09a5,5,0,0,0,5-5V388.28a5,5,0,0,0-5-5h-5.51l-1.61-9.47-8.46,9.47h-5.51a5,5,0,0,0-5,5v10.26A5,5,0,0,0,246.36,403.5Z" style="fill:#fff;stroke:#263238;stroke-linecap:round;stroke-linejoin:round"></path><path d="M253.77,391.3,249.34,393l4.43,1.65V396l-5.92-2.3v-1.39l5.92-2.3Z" style="fill:#263238"></path><path d="M258.45,386.63h1.43l-4.24,12.11h-1.43Z" style="fill:#263238"></path><path d="M266.11,392.26v1.39l-5.92,2.3v-1.34l4.43-1.65-4.43-1.66V390Z" style="fill:#263238"></path><path d="M112.24,328.75h21.09a5,5,0,0,0,5-4.95V313.53a5,5,0,0,0-5-5h-5.51l1.2-9.47-11.27,9.47h-5.51a5,5,0,0,0-5,5V323.8A5,5,0,0,0,112.24,328.75Z" style="fill:#fff;stroke:#263238;stroke-linecap:round;stroke-linejoin:round"></path><path d="M118.49,322.25a1,1,0,0,1,1-1,1,1,0,0,1,1,1,1,1,0,0,1-1,1A1,1,0,0,1,118.49,322.25Zm.09-8.09h1.9l-.32,6h-1.27Z" style="fill:#263238"></path><path d="M122.14,316.46h5.92v1.29h-5.92Zm0,3.11h5.92v1.29h-5.92Z" style="fill:#263238"></path></g><g id="freepik--Mouse--inject-4"><path d="M450,317.12a71.82,71.82,0,0,1-1,11.86c-2.9,17.31-12,29.93-22.76,29.93a13.68,13.68,0,0,1-2.86-.3c-11.75-2.49-20.86-20.11-20.86-41.49,0-23.08,10.62-31.25,23.72-31.25S450,294,450,317.12Z" style="fill:#fff"></path><g style="clip-path:url(#freepik--clip-path-3--inject-4)"><path d="M441.43,317.38c.88,12.38-1.24,24.82-4.81,36.71,8.94-7.34,13.05-18.88,16.77-29.83,2.7-7.95,5.43-16.15,4.94-24.53s-5-17.11-12.84-20a17.13,17.13,0,0,0-12.13.19c-6.59,2.65-3,4.79-.21,9.53A64.6,64.6,0,0,1,441.43,317.38Z" style="fill:#E1AFD1"></path><path d="M441.43,317.38c.88,12.38-1.24,24.82-4.81,36.71,8.94-7.34,13.05-18.88,16.77-29.83,2.7-7.95,5.43-16.15,4.94-24.53s-5-17.11-12.84-20a17.13,17.13,0,0,0-12.13.19c-6.59,2.65-3,4.79-.21,9.53A64.6,64.6,0,0,1,441.43,317.38Z" style="fill:#fff;opacity:0.5"></path></g><path d="M450,317.12a71.82,71.82,0,0,1-1,11.86c-2.9,17.31-12,29.93-22.76,29.93a13.68,13.68,0,0,1-2.86-.3c-11.75-2.49-20.86-20.11-20.86-41.49,0-23.08,10.62-31.25,23.72-31.25S450,294,450,317.12Z" style="fill:none;stroke:#263238;stroke-miterlimit:10"></path><path d="M439.05,338.35a41,41,0,0,1-7.79,14.6" style="fill:#fff;stroke:#263238;stroke-miterlimit:10"></path><path d="M439.8,335.45c-.12.56-.26,1.12-.41,1.68" style="fill:none;stroke:#263238;stroke-miterlimit:10"></path><path d="M439.74,317.06a40.77,40.77,0,0,1,.47,16.28" style="fill:#fff;stroke:#263238;stroke-miterlimit:10"></path><path d="M402.57,317.12s27-10.66,47.46,0" style="fill:none;stroke:#263238;stroke-miterlimit:10"></path><path d="M426.3,285.87s2.7,10,3,26.27" style="fill:#fff;stroke:#263238;stroke-miterlimit:10"></path><path d="M430.07,298c.34,3.11-.2,5.75-1.21,5.91s-2.11-2.23-2.45-5.33.19-5.76,1.2-5.92S429.72,294.93,430.07,298Z" style="fill:#bfbfbf;stroke:#263238;stroke-linecap:round;stroke-linejoin:round"></path><path d="M415.66,366.91H384a7.75,7.75,0,0,1-7.69-6.71,5.33,5.33,0,0,1-.09-1.07V284.54a5.63,5.63,0,0,1,.09-1.08,7.74,7.74,0,0,1,7.69-6.7h89.72a7.66,7.66,0,0,1,3.73,1" style="fill:none;stroke:#263238;stroke-miterlimit:10"></path></g></svg>